<svg width="129" height="36" viewBox="0 0 129 36" fill="none" xmlns="http://www.w3.org/2000/svg">
<path d="M41.7828 27.9222V14.8444H38.5645V10.7709H41.8385V8.67401C41.9399 5.77407 43.7866 2.15836 49.2533 2.10404C54.3185 2.06913 56.4097 5.26391 56.4336 8.63134H51.7879C51.7382 7.22501 50.8337 6.55385 49.3766 6.55385C47.1899 6.55385 46.9911 8.03389 46.9911 8.9126V10.7651H56.8848V27.9222H51.6408V14.8444H47.0806C47.0806 14.8444 47.0806 14.9297 47.0806 15.2323V27.9242L41.7828 27.9222Z" fill="#FF874A"/>
<path d="M22.4315 10.5131V10.5267H23.493V14.9358H22.4315C21.5449 14.9358 20.7696 15.797 20.7696 16.666V27.9283H15.7263V17.0656C15.7368 15.3348 16.447 13.6779 17.7026 12.4553C18.9582 11.2326 20.6576 10.543 22.4315 10.5364V10.5131Z" fill="white"/>
<path d="M5.5281 27.8127V35.1411H0.486816V17.4078L0.498744 16.9229C0.493387 16.0658 0.663078 15.2164 0.997906 14.424C1.33273 13.6317 1.82599 12.9124 2.44886 12.3082C3.05833 11.6999 3.78672 11.2172 4.59087 10.8887C5.39501 10.5602 6.25856 10.3925 7.13034 10.3956L7.20985 10.3781V10.3956C8.07927 10.3944 8.94014 10.563 9.74175 10.8915C10.5434 11.22 11.2695 11.7017 11.8774 12.3082C12.5024 12.9115 12.9978 13.6304 13.3346 14.4227C13.6715 15.2151 13.8431 16.065 13.8395 16.9229V21.813C13.8416 22.6743 13.6696 23.5276 13.3334 24.324C12.9973 25.1204 12.5035 25.8443 11.8804 26.4543C11.2573 27.0643 10.517 27.5485 9.70194 27.8791C8.88687 28.2097 8.01301 28.3803 7.13034 28.381C6.00718 28.381 5.55991 28.125 4.96752 27.5566L5.5281 27.8127ZM6.02706 23.4463C6.16601 23.5973 6.33616 23.7179 6.52632 23.8002C6.71648 23.8824 6.92234 23.9244 7.13034 23.9235C7.34784 23.9273 7.56377 23.8869 7.76435 23.8047C7.96493 23.7225 8.14574 23.6005 8.29524 23.4463C8.45755 23.2993 8.58717 23.1214 8.67608 22.9235C8.76499 22.7256 8.81129 22.512 8.81209 22.296V16.436C8.81223 16.2221 8.76629 16.0105 8.67725 15.815C8.58821 15.6195 8.45806 15.4445 8.29524 15.3012C8.14703 15.1437 7.96704 15.0177 7.76658 14.9313C7.56612 14.8448 7.34951 14.7997 7.13034 14.7988C6.68036 14.806 6.25157 14.9866 5.93761 15.3012C5.62407 15.6004 5.44407 16.0081 5.43666 16.436V22.3057C5.43666 22.7596 5.73285 23.1728 6.03302 23.456" fill="white"/>
<path d="M31.1583 10.3781V10.3956C32.935 10.3935 34.64 11.0799 35.8984 12.3038C37.1568 13.5277 37.8657 15.1891 37.8694 16.9229V21.813C37.8847 22.6821 37.7225 23.5454 37.3923 24.3527C37.0621 25.16 36.5704 25.895 35.946 26.5149C35.3216 27.1348 34.5769 27.6271 33.7554 27.9632C32.9339 28.2993 32.052 28.4724 31.1613 28.4724C30.2705 28.4724 29.3886 28.2993 28.5671 27.9632C27.7457 27.6271 27.001 27.1348 26.3766 26.5149C25.7521 25.895 25.2605 25.16 24.9302 24.3527C24.6 23.5454 24.4378 22.6821 24.4531 21.813V16.9229C24.4568 15.1901 25.165 13.5296 26.4221 12.3059C27.6792 11.0821 29.3826 10.3951 31.1583 10.3956V10.3781ZM31.1583 14.7988C30.9352 14.8009 30.7148 14.8464 30.51 14.9327C30.3052 15.0189 30.1201 15.1442 29.9656 15.3012C29.8084 15.4479 29.6833 15.624 29.5975 15.819C29.5118 16.014 29.4673 16.2238 29.4666 16.436V22.3057C29.4766 22.739 29.6566 23.1519 29.9695 23.4595C30.2825 23.767 30.7044 23.9456 31.1483 23.9584C31.5926 23.9469 32.0151 23.7688 32.328 23.4609C32.6409 23.153 32.8201 22.7392 32.8281 22.3057V16.436C32.8219 16.0091 32.6441 15.6016 32.3331 15.3012C32.0182 14.988 31.59 14.8077 31.1404 14.7988" fill="white"/>
<path d="M56.8864 10.7634H51.6404V14.8389H56.8864V10.7634Z" fill="white"/>
<path d="M65.9726 28.4547H64.5513L68.857 10.3781H70.2784L65.9726 28.4547Z" fill="white"/>
<path d="M80.2749 27.029C78.0744 27.029 76.8279 25.7837 76.7405 23.4715H78.291C78.3984 25.0932 79.0683 25.5936 80.2928 25.5936C81.7818 25.5936 82.4079 24.8429 82.4079 22.9478C82.4079 21.877 82.2966 21.3068 81.911 20.8024C81.6307 20.463 81.3285 20.2748 80.6188 20.0265L79.8237 19.753C78.6846 19.3651 78.2095 19.0799 77.7145 18.4766C77.154 17.7725 76.981 16.8511 76.981 15.6136C76.981 13.0259 78.2294 11.8097 80.4519 11.8097C82.4537 11.8097 83.6603 12.669 83.8313 15.1926H82.2807C82.1933 13.7824 81.6983 13.1733 80.426 13.1733C79.112 13.1733 78.5316 13.893 78.5316 15.5689C78.5316 16.4302 78.6369 17.0393 78.9411 17.4214C79.2452 17.8035 79.5374 17.9665 80.2769 18.2225L81.0303 18.4766C82.1078 18.8219 82.6445 19.1226 83.1196 19.6405C83.7438 20.3602 83.9804 21.3436 83.9804 22.8799C83.9784 25.9117 82.6226 27.029 80.2749 27.029Z" fill="white"/>
<path d="M90.4499 13.3193V26.8976H88.8755V13.3193H86.0427V11.9363H93.3005V13.3193H90.4499Z" fill="white"/>
<path d="M99.573 27.0296C97.2034 27.0296 95.8875 25.8056 95.8875 22.7621V11.9363H97.4619V22.6535C97.4619 24.8609 98.1099 25.6155 99.573 25.6155C101.036 25.6155 101.66 24.8609 101.66 22.6535V11.9363H103.233V22.7582C103.233 25.7842 101.923 27.0296 99.573 27.0296Z" fill="white"/>
<path d="M109.785 26.9015H106.424V11.9363H109.767C112.091 11.9363 113.729 13.0672 113.729 16.2406V22.6127C113.729 25.2624 112.395 26.9015 109.785 26.9015ZM112.155 16.4268C112.155 13.9245 111.101 13.3232 109.593 13.3232H108.02V25.5165H109.61C111.27 25.5165 112.153 24.4458 112.153 22.4246L112.155 16.4268Z" fill="white"/>
<path d="M116.781 26.9015V11.9363H118.371V26.9015H116.781Z" fill="white"/>
<path d="M125.131 27.029C123.234 27.029 121.427 26.1406 121.427 22.6995V16.1334C121.427 12.6884 123.234 11.8097 125.131 11.8097C127.027 11.8097 128.814 12.6884 128.814 16.1334V22.6956C128.814 26.1406 127.003 27.029 125.131 27.029ZM127.242 16.3041C127.242 13.6137 126.274 13.2121 125.131 13.2121C123.988 13.2121 123.022 13.6137 123.022 16.3041V22.5113C123.022 25.1979 123.99 25.615 125.131 25.615C126.272 25.615 127.242 25.196 127.242 22.5113V16.3041Z" fill="white"/>
</svg>
