<svg width="130" height="36" viewBox="0 0 130 36" fill="none" xmlns="http://www.w3.org/2000/svg">
<g clip-path="url(#clip0_422_1143)">
<path d="M42.2828 27.9222V14.8444H39.0645V10.7709H42.3385V8.67401C42.4399 5.77407 44.2866 2.15836 49.7533 2.10404C54.8185 2.06913 56.9097 5.26391 56.9336 8.63134H52.2879C52.2382 7.22501 51.3337 6.55385 49.8766 6.55385C47.6899 6.55385 47.4911 8.03389 47.4911 8.9126V10.7651H57.3848V27.9222H52.1408V14.8444H47.5806C47.5806 14.8444 47.5806 14.9297 47.5806 15.2323V27.9242L42.2828 27.9222Z" fill="#FF874A"/>
<path d="M22.9315 10.5132V10.5268H23.993V14.9358H22.9315C22.0449 14.9358 21.2696 15.7971 21.2696 16.6661V27.9283H16.2263V17.0657C16.2368 15.3348 16.947 13.678 18.2026 12.4553C19.4582 11.2327 21.1576 10.5431 22.9315 10.5365V10.5132Z" fill="#2A2A36"/>
<path d="M6.0281 27.8127V35.1411H0.986816V17.4079L0.998744 16.9229C0.993387 16.0659 1.16308 15.2164 1.49791 14.4241C1.83273 13.6318 2.32599 12.9125 2.94886 12.3082C3.55833 11.7 4.28672 11.2173 5.09087 10.8888C5.89501 10.5602 6.75856 10.3925 7.63034 10.3956L7.70985 10.3782V10.3956C8.57927 10.3945 9.44014 10.5631 10.2418 10.8916C11.0434 11.22 11.7695 11.7017 12.3774 12.3082C13.0024 12.9116 13.4978 13.6304 13.8346 14.4228C14.1715 15.2151 14.3431 16.0651 14.3395 16.9229V21.8131C14.3416 22.6744 14.1696 23.5276 13.8334 24.324C13.4973 25.1204 13.0035 25.8443 12.3804 26.4544C11.7573 27.0644 11.017 27.5485 10.2019 27.8792C9.38687 28.2098 8.51301 28.3803 7.63034 28.3811C6.50718 28.3811 6.05991 28.125 5.46752 27.5567L6.0281 27.8127ZM6.52706 23.4463C6.66601 23.5974 6.83616 23.718 7.02632 23.8002C7.21648 23.8825 7.42234 23.9245 7.63034 23.9235C7.84784 23.9274 8.06377 23.8869 8.26435 23.8048C8.46493 23.7226 8.64574 23.6005 8.79524 23.4463C8.95755 23.2994 9.08717 23.1214 9.17608 22.9236C9.26499 22.7257 9.31129 22.5121 9.31209 22.2961V16.436C9.31223 16.2221 9.26629 16.0106 9.17725 15.8151C9.08821 15.6196 8.95806 15.4445 8.79524 15.3013C8.64703 15.1437 8.46704 15.0178 8.26658 14.9313C8.06612 14.8449 7.84951 14.7998 7.63034 14.7989C7.18036 14.8061 6.75157 14.9867 6.43761 15.3013C6.12407 15.6005 5.94407 16.0082 5.93666 16.436V22.3058C5.93666 22.7597 6.23285 23.1728 6.53302 23.456" fill="#2A2A36"/>
<path d="M31.6583 10.3782V10.3956C33.435 10.3936 35.14 11.0799 36.3984 12.3039C37.6568 13.5278 38.3657 15.1892 38.3694 16.9229V21.8131C38.3847 22.6821 38.2225 23.5455 37.8923 24.3528C37.5621 25.16 37.0704 25.895 36.446 26.5149C35.8216 27.1348 35.0769 27.6272 34.2554 27.9633C33.4339 28.2993 32.552 28.4724 31.6613 28.4724C30.7705 28.4724 29.8886 28.2993 29.0671 27.9633C28.2457 27.6272 27.501 27.1348 26.8766 26.5149C26.2521 25.895 25.7605 25.16 25.4302 24.3528C25.1 23.5455 24.9378 22.6821 24.9531 21.8131V16.9229C24.9568 15.1902 25.665 13.5297 26.9221 12.3059C28.1792 11.0821 29.8826 10.3951 31.6583 10.3956V10.3782ZM31.6583 14.7989C31.4352 14.8009 31.2148 14.8464 31.01 14.9327C30.8052 15.019 30.6201 15.1443 30.4656 15.3013C30.3084 15.448 30.1833 15.624 30.0975 15.819C30.0118 16.014 29.9673 16.2239 29.9666 16.436V22.3058C29.9766 22.739 30.1566 23.152 30.4695 23.4595C30.7825 23.767 31.2044 23.9456 31.6483 23.9584C32.0926 23.947 32.5151 23.7688 32.828 23.4609C33.1409 23.1531 33.3201 22.7393 33.3281 22.3058V16.436C33.3219 16.0091 33.1441 15.6016 32.8331 15.3013C32.5182 14.9881 32.09 14.8077 31.6404 14.7989" fill="#2A2A36"/>
<path d="M57.3864 10.7634H52.1404V14.8389H57.3864V10.7634Z" fill="#2A2A36"/>
<path d="M66.4726 28.4548H65.0513L69.357 10.3782H70.7784L66.4726 28.4548Z" fill="#2A2A36"/>
<path d="M80.7749 27.0289C78.5744 27.0289 77.3279 25.7836 77.2405 23.4714H78.791C78.8984 25.093 79.5683 25.5935 80.7928 25.5935C82.2818 25.5935 82.9079 24.8428 82.9079 22.9477C82.9079 21.8769 82.7966 21.3066 82.411 20.8023C82.1307 20.4628 81.8285 20.2747 81.1188 20.0264L80.3237 19.7529C79.1846 19.3649 78.7095 19.0798 78.2145 18.4765C77.654 17.7724 77.481 16.851 77.481 15.6134C77.481 13.0258 78.7294 11.8096 80.9519 11.8096C82.9537 11.8096 84.1603 12.6689 84.3313 15.1925H82.7807C82.6933 13.7823 82.1983 13.1732 80.926 13.1732C79.612 13.1732 79.0316 13.8929 79.0316 15.5688C79.0316 16.4301 79.1369 17.0392 79.4411 17.4213C79.7452 17.8034 80.0374 17.9664 80.7769 18.2224L81.5303 18.4765C82.6078 18.8218 83.1445 19.1225 83.6196 19.6404C84.2438 20.36 84.4804 21.3435 84.4804 22.8798C84.4784 25.9116 83.1226 27.0289 80.7749 27.0289Z" fill="#2A2A36"/>
<path d="M90.9499 13.3193V26.8976H89.3755V13.3193H86.5427V11.9363H93.8005V13.3193H90.9499Z" fill="#2A2A36"/>
<path d="M100.073 27.0296C97.7034 27.0296 96.3875 25.8056 96.3875 22.7621V11.9363H97.9619V22.6535C97.9619 24.8609 98.6099 25.6155 100.073 25.6155C101.536 25.6155 102.16 24.8609 102.16 22.6535V11.9363H103.733V22.7582C103.733 25.7842 102.423 27.0296 100.073 27.0296Z" fill="#2A2A36"/>
<path d="M110.285 26.9015H106.924V11.9363H110.267C112.591 11.9363 114.229 13.0672 114.229 16.2406V22.6127C114.229 25.2624 112.895 26.9015 110.285 26.9015ZM112.655 16.4268C112.655 13.9245 111.601 13.3232 110.093 13.3232H108.52V25.5165H110.11C111.77 25.5165 112.653 24.4458 112.653 22.4246L112.655 16.4268Z" fill="#2A2A36"/>
<path d="M117.281 26.9015V11.9363H118.871V26.9015H117.281Z" fill="#2A2A36"/>
<path d="M125.631 27.0289C123.734 27.0289 121.927 26.1405 121.927 22.6994V16.1333C121.927 12.6883 123.734 11.8096 125.631 11.8096C127.527 11.8096 129.314 12.6883 129.314 16.1333V22.6955C129.314 26.1405 127.503 27.0289 125.631 27.0289ZM127.742 16.304C127.742 13.6135 126.774 13.212 125.631 13.212C124.488 13.212 123.522 13.6135 123.522 16.304V22.5112C123.522 25.1978 124.49 25.6148 125.631 25.6148C126.772 25.6148 127.742 25.1959 127.742 22.5112V16.304Z" fill="#2A2A36"/>
</g>
<defs>
<clipPath id="clip0_422_1143">
<rect width="129" height="36" fill="white" transform="translate(0.5)"/>
</clipPath>
</defs>
</svg>
