<svg width="18" height="12" viewBox="0 0 18 12" fill="none" xmlns="http://www.w3.org/2000/svg">
<path d="M9.78596 11.6C3.77272 11.6 0.342862 7.39582 0.199951 0.400024H3.21207C3.31101 5.53476 5.53162 7.70973 7.29052 8.15818V0.400024H10.1267V4.82845C11.8637 4.63786 13.6885 2.61984 14.3041 0.400024H17.1404C16.9084 1.55129 16.446 2.64135 15.782 3.60203C15.1181 4.5627 14.2669 5.37333 13.2818 5.98321C14.3814 6.54047 15.3527 7.32922 16.1316 8.29742C16.9104 9.26562 17.479 10.3912 17.7999 11.6H14.6779C14.3898 10.5501 13.8043 9.61027 12.9947 8.89829C12.1851 8.1863 11.1874 7.73384 10.1267 7.59762V11.6H9.78596V11.6Z" fill="#2A2A36"/>
</svg>
