<svg width="28" height="18" viewBox="0 0 28 18" fill="none" xmlns="http://www.w3.org/2000/svg">
<path d="M15.1791 17.4C6.1592 17.4 1.01441 11.0937 0.800049 0.599976H5.31823C5.46663 8.30208 8.79755 11.5645 11.4359 12.2372V0.599976H15.6902V7.24262C18.2956 6.95673 21.0329 3.92971 21.9563 0.599976H26.2107C25.8627 2.32687 25.1691 3.96196 24.1732 5.40298C23.1773 6.84399 21.9005 8.05994 20.4228 8.97475C22.0723 9.81064 23.5292 10.9938 24.6975 12.4461C25.8657 13.8984 26.7186 15.5868 27.2001 17.4H22.517C22.0848 15.8251 21.2065 14.4153 19.9921 13.3474C18.7777 12.2794 17.2812 11.6007 15.6902 11.3964V17.4H15.1791V17.4Z" fill="#2A2A36"/>
</svg>
