<svg width="17" height="17" viewBox="0 0 17 17" fill="none" xmlns="http://www.w3.org/2000/svg">
<path d="M14.3415 2.65001C12.761 1.07501 10.6537 0.200012 8.42927 0.200012C3.80488 0.200012 0.0585357 3.93334 0.0585357 8.54168C0.0585357 10 0.468293 11.4583 1.17073 12.6833L0 17L4.44878 15.8333C5.67805 16.475 7.02439 16.825 8.42927 16.825C13.0537 16.825 16.8 13.0917 16.8 8.48335C16.7415 6.32501 15.9219 4.22501 14.3415 2.65001ZM12.4683 11.5167C12.2927 11.9833 11.4732 12.45 11.0634 12.5083C10.7122 12.5667 10.2439 12.5667 9.77561 12.45C9.48293 12.3333 9.07317 12.2167 8.60488 11.9833C6.49756 11.1083 5.15122 9.00834 5.03415 8.83334C4.91707 8.71668 4.1561 7.72501 4.1561 6.67501C4.1561 5.62501 4.68293 5.15834 4.85854 4.92501C5.03415 4.69168 5.26829 4.69168 5.4439 4.69168C5.56097 4.69168 5.73658 4.69168 5.85366 4.69168C5.97073 4.69168 6.14634 4.63334 6.32195 5.04168C6.49756 5.45001 6.90732 6.50001 6.96585 6.55835C7.02439 6.67501 7.02439 6.79168 6.96585 6.90835C6.90732 7.02501 6.84878 7.14168 6.7317 7.25834C6.61463 7.37501 6.49756 7.55001 6.43902 7.60834C6.32195 7.72501 6.20488 7.84168 6.32195 8.01668C6.43902 8.25001 6.84878 8.89168 7.49268 9.47501C8.31219 10.175 8.9561 10.4083 9.19024 10.525C9.42439 10.6417 9.54146 10.5833 9.65853 10.4667C9.77561 10.35 10.1854 9.88335 10.3024 9.65001C10.4195 9.41668 10.5951 9.47501 10.7707 9.53335C10.9463 9.59168 12 10.1167 12.1756 10.2333C12.4098 10.35 12.5268 10.4083 12.5854 10.4667C12.6439 10.6417 12.6439 11.05 12.4683 11.5167Z" fill="#2A2A36"/>
</svg>
